<svg width="240" height="120" viewBox="0 0 240 120" fill="none" xmlns="http://www.w3.org/2000/svg">
<g clip-path="url(#clip0_143_2)">
<path d="M239.16 50H197.31C193.86 44.02 187.4 40 180 40H142.47L140 33.43L135.06 20.25C135.13 20.17 135.21 20.08 135.28 20H134.97L131.15 9.81L127.47 0H180C187.01 0 193.74 1.2 200 3.42C207.45 6.04 214.23 10.11 220 15.27C221.66 16.76 223.24 18.34 224.73 20C229.89 25.77 233.95 32.55 236.58 40C237.72 43.22 238.59 46.56 239.16 50Z" fill="#5DE88F"/>
<path d="M239.16 70C238.59 73.44 237.72 76.78 236.58 80C233.95 87.45 229.89 94.23 224.73 100C223.24 101.66 221.66 103.24 220 104.73C214.23 109.89 207.45 113.96 200 116.58C193.74 118.8 187.01 120 180 120H164.04C163.53 120 163.01 120 162.5 119.98C161.66 119.96 160.83 119.92 160 119.86C152.93 119.4 146.19 117.7 140 114.99C132.38 111.65 125.58 106.78 120 100.76V100.65C120 100.65 119.96 100.69 119.95 100.71C119.74 100.47 119.53 100.24 119.31 100C116.55 96.91 114.1 93.53 112.02 89.92C110.58 87.41 109.31 84.79 108.23 82.07L108.2 82L107.52 80.19C107.5 80.13 107.48 80.06 107.46 80L103.71 70L100.01 60.13V60H99.96L97.51 53.46L97.03 52.19C96.71 51.43 96.34 50.7 95.93 50C93.12 45.13 88.32 41.55 82.64 40.39C81.78 40.21 80.91 40.09 80.01 40.04V40H79.29C79.06 39.98 78.83 39.98 78.6 39.98C78.37 39.98 78.14 39.98 77.91 40H60.01C52.61 40 46.15 44.02 42.7 50C40.99 52.94 40.01 56.36 40.01 60C40.01 60.35 40.02 60.69 40.04 61.03C40.05 61.34 40.07 61.65 40.1 61.96C40.17 62.66 40.28 63.35 40.42 64.03C40.48 64.34 40.55 64.65 40.63 64.95C40.64 64.98 40.64 65.02 40.65 65.05C40.7 65.23 40.75 65.4 40.8 65.57C40.86 65.8 40.93 66.03 41.01 66.26C41.05 66.39 41.09 66.51 41.14 66.64C41.27 67 41.41 67.36 41.55 67.71C41.56 67.74 41.57 67.76 41.58 67.79C41.75 68.16 41.91 68.52 42.09 68.88C42.27 69.26 42.47 69.64 42.7 70C46.15 75.98 52.61 80 60.01 80H97.49L100.01 86.71L104.92 99.8L104.99 100L108.8 110.16L112.49 120H60.01C53 120 46.27 118.8 40.01 116.58C32.56 113.96 25.78 109.89 20.01 104.73C18.35 103.24 16.77 101.66 15.28 100C10.12 94.23 6.06001 87.45 3.43001 80C2.29001 76.78 1.42001 73.44 0.85001 70C0.29001 66.75 0.0100098 63.41 0.0100098 60C0.0100098 56.59 0.29001 53.25 0.85001 50C1.42001 46.56 2.29001 43.22 3.43001 40C6.06001 32.55 10.12 25.77 15.28 20C16.77 18.34 18.35 16.76 20.01 15.27C25.78 10.11 32.56 6.04 40.01 3.42C46.27 1.2 53 0 60.01 0H77.73C78.49 0.02 79.25 0.06 80.01 0.12C87.08 0.58 93.82 2.29 100.01 5.01C107.63 8.35 114.42 13.23 119.99 19.26C120 19.27 120.01 19.27 120.01 19.28C120.23 19.52 120.45 19.76 120.66 20C123.43 23.1 125.88 26.48 127.97 30.1C129.4 32.6 130.66 35.2 131.73 37.9L132.46 39.85C132.46 39.85 132.5 39.95 132.51 40H132.52V40.03L136.27 50L140.01 59.98V60H140.02L142.52 66.67L142.76 67.3L142.95 67.79C143.28 68.55 143.65 69.29 144.07 70C146.87 74.86 151.65 78.42 157.31 79.58H157.32C158.2 79.77 159.09 79.89 160.01 79.95V80H180.01C187.42 80 193.88 75.98 197.32 70H239.17H239.16Z" fill="#5DE88F"/>
</g>
<defs>
<clipPath id="clip0_143_2">
<rect width="239.16" height="120" fill="white"/>
</clipPath>
</defs>
</svg>
